<?xml version="1.0" encoding="utf-8"?>
<!-- Generator: Adobe Illustrator 26.0.1, SVG Export Plug-In . SVG Version: 6.00 Build 0)  -->
<svg version="1.1" xmlns="http://www.w3.org/2000/svg" xmlns:xlink="http://www.w3.org/1999/xlink" x="0px" y="0px"
	 viewBox="0 0 3961.5 756" style="enable-background:new 0 0 3961.5 756;" xml:space="preserve">
<style type="text/css">
	.st0{stroke:#000000;stroke-miterlimit:10;}
	.st1{stroke:#000000;stroke-width:12;stroke-miterlimit:48;}
</style>
<g id="Layer_1">
	<g>
		<path class="st0" d="M3952.1,684c0,33.6-26.4,61.2-61.2,61.2s-61.2-26.4-61.2-61.2c0-33.6,27.6-60,61.2-60
			C3925.7,624,3952.1,651.6,3952.1,684z M3844.1,684c0,26.4,19.2,48,46.8,48c26.4,0,45.6-21.6,45.6-48s-19.2-48-45.6-48
			S3844.1,657.6,3844.1,684z M3881.3,716.4h-14.4v-60c6-1.2,13.2-2.4,22.8-2.4c10.8,0,16.8,2.4,20.4,4.8c3.6,2.4,6,7.2,6,13.2
			s-4.8,12-12,14.4v1.2c6,2.4,9.6,6,10.8,14.4c2.4,9.6,2.4,13.2,4.8,14.4h-14.4c-2.4-2.4-2.4-7.2-4.8-14.4c-1.2-6-4.8-9.6-12-9.6h-6
			v24H3881.3z M3881.3,681.6h6c7.2,0,14.4-2.4,14.4-8.4s-3.6-9.6-13.2-9.6c-3.6,0-6,0-7.2,1.2L3881.3,681.6L3881.3,681.6z"/>
	</g>
	<polygon class="st1" points="1584.5,9.6 1633.7,9.6 1721.3,248.4 1813.7,12 1864.1,12 1730.9,336 1705.7,336 	"/>
	<polygon class="st1" points="1909.7,9.6 2053.7,9.6 2053.7,56.4 1952.9,56.4 1952.9,148.8 2050.1,148.8 2050.1,196.8 1952.9,196.8 
		1952.9,290.4 2050.1,290.4 2050.1,337.2 1910.9,337.2 	"/>
	<polygon class="st1" points="2383.7,9.6 2536.1,9.6 2536.1,56.4 2430.5,56.4 2430.5,148.8 2532.5,148.8 2532.5,195.6 2430.5,195.6 
		2430.5,289.2 2532.5,289.2 2532.5,334.8 2384.9,334.8 	"/>
	<g>
		<g>
			<path class="st0" d="M2747.3,9.6h-42l-122.4,327.6h49.2l37.2-96h117.6l38.4,94.8h48L2747.3,9.6z M2684.9,194.4l40.8-108l40.8,108
				H2684.9z"/>
		</g>
		<g>
			<path class="st1" d="M2747.3,9.6h-42l-122.4,327.6h49.2l37.2-96h117.6l38.4,94.8h48L2747.3,9.6z M2684.9,194.4l40.8-108l40.8,108
				H2684.9z"/>
		</g>
	</g>
	<polygon class="st1" points="2873.3,10.8 3052.1,9.6 3052.1,60 2992.1,60 2992.1,337.2 2939.3,337.2 2939.3,61.2 2873.3,61.2 	"/>
	<polygon class="st1" points="3119.3,9.6 3283.7,9.6 3283.7,56.4 3168.5,56.4 3168.5,147.6 3278.9,147.6 3278.9,194.4 3168.5,194.4 
		3168.5,286.8 3278.9,286.8 3278.9,332.4 3120.5,332.4 	"/>
	<path class="st1" d="M3679.7,183.6c-3.6-1.2-15.6-3.6-16.8-3.6c-15.6-6-28.8-16.8-38.4-31.2c-9.6-14.4-14.4-32.4-14.4-50.4
		c0-48,36-86.4,81.6-86.4c43.2,0,79.2,36,82.8,81.6h-44.4c-2.4-18-19.2-33.6-38.4-33.6c-20.4,0-38.4,16.8-38.4,37.2
		c0,19.2,18,34.8,33.6,39.6c2.4,1.2,14.4,3.6,18,4.8c2.4,1.2,14.4,3.6,19.2,6c3.6,1.2,7.2,3.6,12,6c7.2,4.8,14.4,9.6,20.4,16.8
		c12,13.2,20.4,28.8,25.2,46.8c2.4,8.4,3.6,16.8,3.6,25.2c0,54-42,97.2-93.6,97.2c-51.6,0-93.6-43.2-93.6-97.2h46.8
		c0,26.4,20.4,46.8,46.8,46.8c25.2,0,46.8-21.6,46.8-48c0-8.4-2.4-16.8-6-24c-3.6-7.2-9.6-14.4-16.8-18c-4.8-3.6-10.8-6-16.8-7.2
		C3695.3,186,3683.3,183.6,3679.7,183.6z"/>
	<g>
		<g>
			<path class="st0" d="M1409.3,9.6c-91.2,0-165.6,73.2-165.6,163.2S1318.1,336,1409.3,336c91.2,0,165.6-73.2,165.6-163.2
				C1574.9,82.8,1501.7,9.6,1409.3,9.6z M1409.3,289.2c-66,0-118.8-52.8-118.8-116.4c0-64.8,52.8-116.4,118.8-116.4
				s118.8,52.8,118.8,116.4C1528.1,237.6,1475.3,289.2,1409.3,289.2z"/>
		</g>
		<g>
			<path class="st1" d="M1409.3,9.6c-91.2,0-165.6,73.2-165.6,163.2S1318.1,336,1409.3,336c91.2,0,165.6-73.2,165.6-163.2
				C1574.9,82.8,1501.7,9.6,1409.3,9.6z M1409.3,289.2c-66,0-118.8-52.8-118.8-116.4c0-64.8,52.8-116.4,118.8-116.4
				s118.8,52.8,118.8,116.4C1528.1,237.6,1475.3,289.2,1409.3,289.2z"/>
		</g>
	</g>
	<path class="st1" d="M3688.1,601.2c-3.6-1.2-14.4-3.6-16.8-3.6c-15.6-6-28.8-15.6-37.2-30c-9.6-14.4-13.2-31.2-13.2-48
		c0-45.6,34.8-81.6,78-81.6c42,0,76.8,33.6,79.2,76.8h-43.2c-2.4-16.8-18-31.2-37.2-31.2c-20.4,0-36,15.6-36,34.8
		c0,18,16.8,32.4,32.4,37.2c2.4,1.2,14.4,3.6,16.8,3.6c2.4,1.2,14.4,3.6,18,4.8c3.6,1.2,7.2,3.6,10.8,6c7.2,4.8,13.2,9.6,19.2,15.6
		c12,12,20.4,27.6,24,43.2c2.4,7.2,2.4,15.6,2.4,24c0,50.4-39.6,91.2-90,91.2c-49.2,0-90-40.8-90-91.2h45.6
		c0,25.2,20.4,44.4,44.4,44.4c25.2,0,44.4-20.4,44.4-45.6c0-8.4-2.4-15.6-6-22.8c-3.6-7.2-9.6-13.2-15.6-16.8
		c-4.8-3.6-10.8-6-15.6-7.2C3702.5,603.6,3691.7,602.4,3688.1,601.2z"/>
	<g>
		<g>
			<path class="st0" d="M1946.9,439.2c-87.6,0-157.2,69.6-157.2,154.8s70.8,154.8,157.2,154.8c87.6,0,157.2-69.6,157.2-154.8
				C2104.1,507.6,2034.5,439.2,1946.9,439.2z M1946.9,705.6c-62.4,0-112.8-50.4-112.8-111.6s50.4-111.6,112.8-111.6
				c62.4,0,112.8,50.4,112.8,111.6S2009.3,705.6,1946.9,705.6z"/>
		</g>
		<g>
			<path class="st1" d="M1946.9,439.2c-87.6,0-157.2,69.6-157.2,154.8s70.8,154.8,157.2,154.8c87.6,0,157.2-69.6,157.2-154.8
				C2104.1,507.6,2034.5,439.2,1946.9,439.2z M1946.9,705.6c-62.4,0-112.8-50.4-112.8-111.6s50.4-111.6,112.8-111.6
				c62.4,0,112.8,50.4,112.8,111.6S2009.3,705.6,1946.9,705.6z"/>
		</g>
	</g>
	<g>
		<g>
			<path class="st0" d="M3182.9,439.2c-87.6,0-157.2,68.4-157.2,153.6s70.8,153.6,157.2,153.6c87.6,0,157.2-68.4,157.2-153.6
				C3340.1,507.6,3270.5,439.2,3182.9,439.2z M3182.9,703.2c-62.4,0-112.8-49.2-112.8-110.4s50.4-110.4,112.8-110.4
				c62.4,0,112.8,49.2,112.8,110.4S3245.3,703.2,3182.9,703.2z"/>
		</g>
		<g>
			<path class="st1" d="M3182.9,439.2c-87.6,0-157.2,68.4-157.2,153.6s70.8,153.6,157.2,153.6c87.6,0,157.2-68.4,157.2-153.6
				C3340.1,507.6,3270.5,439.2,3182.9,439.2z M3182.9,703.2c-62.4,0-112.8-49.2-112.8-110.4s50.4-110.4,112.8-110.4
				c62.4,0,112.8,49.2,112.8,110.4S3245.3,703.2,3182.9,703.2z"/>
		</g>
	</g>
	<g>
		<g>
			<path class="st0" d="M1416.5,439.2l-200.4,306h48l60-92.4h92.4v92.4h43.2v-306H1416.5z M1416.5,610.8h-66l66-93.6V610.8z"/>
		</g>
		<g>
			<path class="st1" d="M1416.5,439.2l-200.4,306h48l60-92.4h92.4v92.4h43.2v-306H1416.5z M1416.5,610.8h-66l66-93.6V610.8z"/>
		</g>
	</g>
	<polygon class="st1" points="1506.5,439.2 1553.3,439.2 1702.1,651.6 1702.1,439.2 1750.1,439.2 1750.1,747.6 1708.1,747.6 
		1555.7,520.8 1555.7,747.6 1506.5,747.6 	"/>
	<polygon class="st1" points="2640.5,439.2 2554.1,627.6 2554.1,747.6 2510.9,747.6 2510.9,628.8 2430.5,439.2 2476.1,439.2 
		2536.1,573.6 2597.3,439.2 	"/>
	<polygon class="st1" points="2148.5,439.2 2196.5,439.2 2336.9,650.4 2336.9,439.2 2381.3,439.2 2381.3,746.4 2342.9,746.4 
		2197.7,520.8 2197.7,746.4 2148.5,746.4 	"/>
	<polygon class="st1" points="2682.5,439.2 2748.5,439.2 2833.7,658.8 2922.5,439.2 2989.7,439.2 2989.7,746.4 2945.3,746.4 
		2941.7,506.4 2845.7,746.4 2819.3,746.4 2728.1,516 2728.1,746.4 2682.5,746.4 	"/>
	<path class="st1" d="M3558.5,697.2c-4.8,8.4-10.8,15.6-18,22.8c-19.2,16.8-37.2,26.4-66,26.4c-22.8,0-46.8-7.2-64.8-25.2
		c-20.4-20.4-34.8-55.2-34.8-86.4V439.2h43.2v180c1.2,15.6,2.4,31.2,6,42c9.6,28.8,33.6,39.6,48,39.6s39.6-8.4,48-32.4
		c4.8-12,4.8-30,4.8-46.8V438h44.4c0,1.2,0,2.4,0,3.6c0,6,0,12,0,19.2c0,10.8,0,20.4,0,31.2c0,13.2,0,25.2,0,38.4s0,26.4,0,40.8
		c0,13.2,0,25.2,0,38.4c0,19.2,1.2,39.6-2.4,58.8C3566.9,676.8,3563.3,687.6,3558.5,697.2z"/>
	<path class="st1" d="M2249.3,218.4c45.6-10.8,79.2-52.8,79.2-103.2c0-30-13.2-58.8-34.8-78c-21.6-18-51.6-26.4-78-26.4h-87.6v327.6
		h45.6v-144h6l97.2,141.6h51.6L2249.3,218.4L2249.3,218.4z M2172.5,176.4V55.2c0,0,24,0,54,0s54,27.6,54,60l0,0c0,33.6-24,60-54,60
		C2197.7,176.4,2172.5,176.4,2172.5,176.4z"/>
	<path class="st1" d="M3473.3,218.4c45.6-10.8,79.2-52.8,79.2-103.2c0-30-13.2-58.8-34.8-78c-21.6-18-51.6-26.4-78-26.4h-87.6v327.6
		h45.6v-144h6l97.2,141.6h51.6L3473.3,218.4L3473.3,218.4z M3396.5,176.4V55.2c0,0,24,0,54,0s54,27.6,54,60l0,0c0,33.6-24,60-54,60
		S3396.5,176.4,3396.5,176.4z"/>
</g>
<g id="Layer_2">
	<path d="M645.6,607.5L814.9,404C804.6,502.4,737.3,581.2,645.6,607.5z"/>
	<path d="M626.1,620.2l198-237.9l-2.4,22.5c-10.5,99.8-78.9,181.9-174.2,209.3L626.1,620.2z M804.3,427.6L666.6,593
		C737,564.4,788.4,502.7,804.3,427.6z"/>
	<path d="M503.5,149.7L342.3,344.3C355.4,255.1,421.2,178.6,503.5,149.7z"/>
	<path d="M331.9,367.5l3.6-24.3c13.2-89.5,79.8-169.8,165.7-200l23.4-8.2L331.9,367.5z M480.3,167
		c-60.4,30.1-107.5,86.8-125.5,151.4L480.3,167z"/>
	<path d="M556.5,615.7c-105.5-7.1-187-85.6-209.2-187.6l235.7-289.4c106.9,3,195.9,78.9,221.5,179.9L556.5,615.7z"/>
	<path d="M559.5,622.8l-3.5-0.2c-105.2-7.1-191.8-84.6-215.4-192.9l-0.7-3.2l239.8-294.6l3.4,0.1c107.3,3,201,79.1,227.9,185.1
		l0.9,3.4L559.5,622.8z M354.6,429.9c23,99.4,102.3,170.7,198.9,178.8L796.9,317c-26.2-97.3-112.1-167.1-210.9-171.3L354.6,429.9z"
		/>
	<path d="M245.4,549.1c45.9,88.5,125.6,156.9,218.4,189.8L90.6,739L245.4,549.1z"/>
	<path d="M81,743.6l165.2-202.8l3.2,6.2c44.8,86.5,123.5,154.9,215.8,187.6l-1.5,8.9L81,743.6z M244.5,557.3L100.3,734.4l339.2-0.2
		C357,699.1,287.1,635.8,244.5,557.3z"/>
	<path d="M7,753.8l5.5-743.6l465.8-0.3l2,13.4C325.2,70.8,212.6,222.1,212.6,383.1c0,34.2,5.3,69.5,15.3,102.3l1.1,3.6L7,753.8z
		 M26.1,23.9L21,715.8l192.8-229.9c-9.7-33-14.9-68.4-14.9-102.7c0-153.9,99.2-299.2,240.6-359.5L26.1,23.9z"/>
	<path d="M696,19.8l374.2-0.7L906,209.1C862.3,126,785.5,51.3,696,19.8z"/>
	<path d="M904.6,221.2l-4.7-8.9c-45.9-87.2-123-156.8-206.2-186L696,13l389.2-0.7L904.6,221.2z M730.3,26.6
		c71.1,34,135.3,95.5,177,170.5l147.8-171.1L730.3,26.6z"/>
	<path d="M1139.6,736.5L659.8,738c158.6-39.5,288.6-184.7,288.6-354.9c0-39.2-4.1-79-15.2-114.5L1142.5,23l1.8,717.1"/>
	<path d="M659.8,744.9l-1.7-13.5c164.2-40.8,283.4-187.3,283.4-348.2c0-43-5-80.9-14.9-112.5l-1.1-3.6L1149.3,4.4l1.8,739
		L659.8,744.9z M940.8,270.2c9.5,32.1,14.4,70.1,14.4,112.9c0,152.4-102.8,292.3-250,347.9l432.1-1.3l-1.7-688.1L940.8,270.2z"/>
</g>
</svg>
